<?xml version="1.0" encoding="UTF-8"?>
<svg xmlns="http://www.w3.org/2000/svg" xmlns:xlink="http://www.w3.org/1999/xlink" width="50px" height="50px" viewBox="0 0 50 50" version="1.1">
    <g id="surface1">
        <path style=" stroke:none;fill-rule:nonzero;fill:rgb(98.039216%,98.039216%,98.039216%);fill-opacity:1;" d="M 10 0 L 40 0 C 45.523438 0 50 4.476562 50 10 L 50 40 C 50 45.523438 45.523438 50 40 50 L 10 50 C 4.476562 50 0 45.523438 0 40 L 0 10 C 0 4.476562 4.476562 0 10 0 Z M 10 0 "/>
        <path style=" stroke:none;fill-rule:nonzero;fill:rgb(0%,0%,0%);fill-opacity:1;" d="M 36.648438 18.148438 L 12.898438 18.148438 L 12.898438 10.648438 L 37.898438 10.648438 L 37.898438 16.898438 C 37.898438 17.589844 37.339844 18.148438 36.648438 18.148438 Z M 19.148438 40.148438 L 12.898438 40.148438 L 12.898438 20.148438 L 20.398438 20.148438 L 20.398438 38.898438 C 20.398438 39.589844 19.839844 40.148438 19.148438 40.148438 Z M 33.648438 27.648438 L 22.398438 27.648438 L 22.398438 20.148438 L 34.898438 20.148438 L 34.898438 26.398438 C 34.898438 27.089844 34.339844 27.648438 33.648438 27.648438 Z M 33.648438 27.648438 "/>
    </g>
</svg>
